<?xml version="1.0" standalone="yes"?>

<svg version="1.1" viewBox="0.0 0.0 964.6430446194225 258.5721784776903" fill="none" stroke="none" stroke-linecap="square" stroke-miterlimit="10" xmlns="http://www.w3.org/2000/svg" xmlns:xlink="http://www.w3.org/1999/xlink"><clipPath id="p.0"><path d="m0 0l964.64307 0l0 258.57217l-964.64307 0l0 -258.57217z" clip-rule="nonzero"></path></clipPath><g clip-path="url(#p.0)"><path fill="#000000" fill-opacity="0.0" d="m0 0l964.64307 0l0 258.57217l-964.64307 0z" fill-rule="evenodd"></path><path fill="#efefef" d="m253.6378 86.56739l0 0c0 -12.741943 10.3293915 -23.071327 23.071335 -23.071327l406.58176 0c6.1188965 0 11.987183 2.430725 16.313904 6.7574387c4.32666 4.326706 6.7573853 10.194992 6.7573853 16.313889l0 92.28254c0 12.741943 -10.329346 23.071335 -23.07129 23.071335l-406.58176 0c-12.741943 0 -23.071335 -10.3293915 -23.071335 -23.071335z" fill-rule="evenodd"></path><path stroke="#000000" stroke-width="1.0" stroke-linejoin="round" stroke-linecap="butt" d="m253.6378 86.56739l0 0c0 -12.741943 10.3293915 -23.071327 23.071335 -23.071327l406.58176 0c6.1188965 0 11.987183 2.430725 16.313904 6.7574387c4.32666 4.326706 6.7573853 10.194992 6.7573853 16.313889l0 92.28254c0 12.741943 -10.329346 23.071335 -23.07129 23.071335l-406.58176 0c-12.741943 0 -23.071335 -10.3293915 -23.071335 -23.071335z" fill-rule="evenodd"></path><path fill="#fce5cd" d="m37.070866 110.07874l171.49606 0l0 45.259834l-171.49606 0z" fill-rule="evenodd"></path><path fill="#000000" d="m103.99555 139.62866l0 -13.59375l5.109375 0q1.546875 0 2.484375 0.40625q0.953125 0.40625 1.484375 1.265625q0.53125 0.859375 0.53125 1.796875q0 0.875 -0.46875 1.65625q-0.46875 0.765625 -1.4375 1.234375q1.234375 0.359375 1.890625 1.234375q0.671875 0.875 0.671875 2.0625q0 0.953125 -0.40625 1.78125q-0.390625 0.8125 -0.984375 1.265625q-0.59375 0.4375 -1.5 0.671875q-0.890625 0.21875 -2.1875 0.21875l-5.1875 0zm1.796875 -7.890625l2.9375 0q1.203125 0 1.71875 -0.15625q0.6875 -0.203125 1.03125 -0.671875q0.359375 -0.46875 0.359375 -1.1875q0 -0.671875 -0.328125 -1.1875q-0.328125 -0.515625 -0.9375 -0.703125q-0.59375 -0.203125 -2.0625 -0.203125l-2.71875 0l0 4.109375zm0 6.28125l3.390625 0q0.875 0 1.21875 -0.0625q0.625 -0.109375 1.046875 -0.359375q0.421875 -0.265625 0.6875 -0.765625q0.265625 -0.5 0.265625 -1.140625q0 -0.765625 -0.390625 -1.328125q-0.390625 -0.5625 -1.078125 -0.78125q-0.6875 -0.234375 -1.984375 -0.234375l-3.15625 0l0 4.671875zm9.224823 1.609375l5.234375 -13.59375l1.9375 0l5.5625 13.59375l-2.046875 0l-1.59375 -4.125l-5.6875 0l-1.484375 4.125l-1.921875 0zm3.921875 -5.578125l4.609375 0l-1.40625 -3.78125q-0.65625 -1.703125 -0.96875 -2.8125q-0.265625 1.3125 -0.734375 2.59375l-1.5 4.0zm9.95919 5.578125l0 -13.59375l2.71875 0l3.21875 9.625q0.4375 1.34375 0.640625 2.015625q0.234375 -0.75 0.734375 -2.1875l3.25 -9.453125l2.421875 0l0 13.59375l-1.734375 0l0 -11.390625l-3.953125 11.390625l-1.625 0l-3.9375 -11.578125l0 11.578125l-1.734375 0z" fill-rule="nonzero"></path><path fill="#d9ead3" d="m274.12598 110.07874l171.49606 0l0 45.259834l-171.49606 0z" fill-rule="evenodd"></path><path fill="#000000" d="m302.28897 139.62866l5.234375 -13.59375l1.9375 0l5.5625 13.59375l-2.046875 0l-1.59375 -4.125l-5.6875 0l-1.484375 4.125l-1.921875 0zm3.921875 -5.578125l4.609375 0l-1.40625 -3.78125q-0.65625 -1.703125 -0.96875 -2.8125q-0.265625 1.3125 -0.734375 2.59375l-1.5 4.0zm16.240448 1.96875l1.640625 0.21875q-0.265625 1.6875 -1.375 2.65625q-1.109375 0.953125 -2.734375 0.953125q-2.015625 0 -3.25 -1.3125q-1.21875 -1.328125 -1.21875 -3.796875q0 -1.59375 0.515625 -2.78125q0.53125 -1.203125 1.609375 -1.796875q1.09375 -0.609375 2.359375 -0.609375q1.609375 0 2.625 0.8125q1.015625 0.8125 1.3125 2.3125l-1.625 0.25q-0.234375 -1.0 -0.828125 -1.5q-0.59375 -0.5 -1.421875 -0.5q-1.265625 0 -2.0625 0.90625q-0.78125 0.90625 -0.78125 2.859375q0 1.984375 0.765625 2.890625q0.765625 0.890625 1.984375 0.890625q0.984375 0 1.640625 -0.59375q0.65625 -0.609375 0.84375 -1.859375zm6.546875 2.109375l0.234375 1.484375q-0.703125 0.140625 -1.265625 0.140625q-0.90625 0 -1.40625 -0.28125q-0.5 -0.296875 -0.703125 -0.75q-0.203125 -0.46875 -0.203125 -1.984375l0 -5.65625l-1.234375 0l0 -1.3125l1.234375 0l0 -2.4375l1.65625 -1.0l0 3.4375l1.6875 0l0 1.3125l-1.6875 0l0 5.75q0 0.71875 0.078125 0.921875q0.09375 0.203125 0.296875 0.328125q0.203125 0.125 0.578125 0.125q0.265625 0 0.734375 -0.078125zm1.5426636 -10.1875l0 -1.90625l1.671875 0l0 1.90625l-1.671875 0zm0 11.6875l0 -9.859375l1.671875 0l0 9.859375l-1.671875 0zm6.8635864 0l-3.75 -9.859375l1.765625 0l2.125 5.90625q0.34375 0.953125 0.625 1.984375q0.21875 -0.78125 0.625 -1.875l2.1875 -6.015625l1.71875 0l-3.734375 9.859375l-1.5625 0zm13.34375 -3.171875l1.71875 0.21875q-0.40625 1.5 -1.515625 2.34375q-1.09375 0.828125 -2.8125 0.828125q-2.15625 0 -3.421875 -1.328125q-1.265625 -1.328125 -1.265625 -3.734375q0 -2.484375 1.265625 -3.859375q1.28125 -1.375 3.328125 -1.375q1.984375 0 3.234375 1.34375q1.25 1.34375 1.25 3.796875q0 0.140625 -0.015625 0.4375l-7.34375 0q0.09375 1.625 0.921875 2.484375q0.828125 0.859375 2.0625 0.859375q0.90625 0 1.546875 -0.46875q0.65625 -0.484375 1.046875 -1.546875zm-5.484375 -2.703125l5.5 0q-0.109375 -1.234375 -0.625 -1.859375q-0.796875 -0.96875 -2.078125 -0.96875q-1.140625 0 -1.9375 0.78125q-0.78125 0.765625 -0.859375 2.046875zm14.543396 5.875l0 -13.59375l6.03125 0q1.8125 0 2.75 0.359375q0.953125 0.359375 1.515625 1.296875q0.5625 0.921875 0.5625 2.046875q0 1.453125 -0.9375 2.453125q-0.921875 0.984375 -2.890625 1.25q0.71875 0.34375 1.09375 0.671875q0.78125 0.734375 1.484375 1.8125l2.375 3.703125l-2.265625 0l-1.796875 -2.828125q-0.796875 -1.21875 -1.3125 -1.875q-0.5 -0.65625 -0.90625 -0.90625q-0.40625 -0.265625 -0.8125 -0.359375q-0.3125 -0.078125 -1.015625 -0.078125l-2.078125 0l0 6.046875l-1.796875 0zm1.796875 -7.59375l3.859375 0q1.234375 0 1.921875 -0.25q0.703125 -0.265625 1.0625 -0.828125q0.375 -0.5625 0.375 -1.21875q0 -0.96875 -0.703125 -1.578125q-0.703125 -0.625 -2.21875 -0.625l-4.296875 0l0 4.5zm18.176056 4.421875l1.71875 0.21875q-0.40625 1.5 -1.515625 2.34375q-1.09375 0.828125 -2.8125 0.828125q-2.15625 0 -3.421875 -1.328125q-1.265625 -1.328125 -1.265625 -3.734375q0 -2.484375 1.265625 -3.859375q1.28125 -1.375 3.328125 -1.375q1.984375 0 3.234375 1.34375q1.25 1.34375 1.25 3.796875q0 0.140625 -0.015625 0.4375l-7.34375 0q0.09375 1.625 0.921875 2.484375q0.828125 0.859375 2.0625 0.859375q0.90625 0 1.546875 -0.46875q0.65625 -0.484375 1.046875 -1.546875zm-5.484375 -2.703125l5.5 0q-0.109375 -1.234375 -0.625 -1.859375q-0.796875 -0.96875 -2.078125 -0.96875q-1.140625 0 -1.9375 0.78125q-0.78125 0.765625 -0.859375 2.046875zm8.813232 6.6875l1.609375 0.25q0.109375 0.75 0.578125 1.09375q0.609375 0.453125 1.6875 0.453125q1.171875 0 1.796875 -0.46875q0.625 -0.453125 0.859375 -1.28125q0.125 -0.515625 0.109375 -2.15625q-1.09375 1.296875 -2.71875 1.296875q-2.03125 0 -3.15625 -1.46875q-1.109375 -1.46875 -1.109375 -3.515625q0 -1.40625 0.515625 -2.59375q0.515625 -1.203125 1.484375 -1.84375q0.96875 -0.65625 2.265625 -0.65625q1.75 0 2.875 1.40625l0 -1.1875l1.546875 0l0 8.515625q0 2.3125 -0.46875 3.265625q-0.46875 0.96875 -1.484375 1.515625q-1.015625 0.5625 -2.5 0.5625q-1.765625 0 -2.859375 -0.796875q-1.078125 -0.796875 -1.03125 -2.390625zm1.375 -5.921875q0 1.953125 0.765625 2.84375q0.78125 0.890625 1.9375 0.890625q1.140625 0 1.921875 -0.890625q0.78125 -0.890625 0.78125 -2.78125q0 -1.8125 -0.8125 -2.71875q-0.796875 -0.921875 -1.921875 -0.921875q-1.109375 0 -1.890625 0.90625q-0.78125 0.890625 -0.78125 2.671875zm9.313202 -6.578125l0 -1.90625l1.671875 0l0 1.90625l-1.671875 0zm0 11.6875l0 -9.859375l1.671875 0l0 9.859375l-1.671875 0zm3.5042114 -4.921875q0 -2.734375 1.53125 -4.0625q1.265625 -1.09375 3.09375 -1.09375q2.03125 0 3.3125 1.34375q1.296875 1.328125 1.296875 3.671875q0 1.90625 -0.578125 3.0q-0.5625 1.078125 -1.65625 1.6875q-1.078125 0.59375 -2.375 0.59375q-2.0625 0 -3.34375 -1.328125q-1.28125 -1.328125 -1.28125 -3.8125zm1.71875 0q0 1.890625 0.828125 2.828125q0.828125 0.9375 2.078125 0.9375q1.25 0 2.0625 -0.9375q0.828125 -0.953125 0.828125 -2.890625q0 -1.828125 -0.828125 -2.765625q-0.828125 -0.9375 -2.0625 -0.9375q-1.25 0 -2.078125 0.9375q-0.828125 0.9375 -0.828125 2.828125zm9.281952 4.921875l0 -9.859375l1.5 0l0 1.40625q1.09375 -1.625 3.140625 -1.625q0.890625 0 1.640625 0.328125q0.75 0.3125 1.109375 0.84375q0.375 0.515625 0.53125 1.21875q0.09375 0.46875 0.09375 1.625l0 6.0625l-1.671875 0l0 -6.0q0 -1.015625 -0.203125 -1.515625q-0.1875 -0.515625 -0.6875 -0.8125q-0.5 -0.296875 -1.171875 -0.296875q-1.0625 0 -1.84375 0.671875q-0.765625 0.671875 -0.765625 2.578125l0 5.375l-1.671875 0z" fill-rule="nonzero"></path><path fill="#c9daf8" d="m511.17978 110.07874l171.49606 0l0 45.259834l-171.49606 0z" fill-rule="evenodd"></path><path fill="#000000" d="m554.84406 139.62866l0 -13.59375l5.125 0q1.359375 0 2.078125 0.125q1.0 0.171875 1.671875 0.640625q0.671875 0.46875 1.078125 1.3125q0.421875 0.84375 0.421875 1.84375q0 1.734375 -1.109375 2.9375q-1.09375 1.203125 -3.984375 1.203125l-3.484375 0l0 5.53125l-1.796875 0zm1.796875 -7.140625l3.515625 0q1.75 0 2.46875 -0.640625q0.734375 -0.65625 0.734375 -1.828125q0 -0.859375 -0.4375 -1.46875q-0.421875 -0.609375 -1.125 -0.796875q-0.453125 -0.125 -1.671875 -0.125l-3.484375 0l0 4.859375zm10.4123535 7.140625l0 -9.859375l1.5 0l0 1.5q0.578125 -1.046875 1.0625 -1.375q0.484375 -0.34375 1.078125 -0.34375q0.84375 0 1.71875 0.546875l-0.578125 1.546875q-0.609375 -0.359375 -1.234375 -0.359375q-0.546875 0 -0.984375 0.328125q-0.421875 0.328125 -0.609375 0.90625q-0.28125 0.890625 -0.28125 1.953125l0 5.15625l-1.671875 0zm5.6032715 -4.921875q0 -2.734375 1.53125 -4.0625q1.265625 -1.09375 3.09375 -1.09375q2.03125 0 3.3125 1.34375q1.296875 1.328125 1.296875 3.671875q0 1.90625 -0.578125 3.0q-0.5625 1.078125 -1.65625 1.6875q-1.078125 0.59375 -2.375 0.59375q-2.0625 0 -3.34375 -1.328125q-1.28125 -1.328125 -1.28125 -3.8125zm1.71875 0q0 1.890625 0.828125 2.828125q0.828125 0.9375 2.078125 0.9375q1.25 0 2.0625 -0.9375q0.828125 -0.953125 0.828125 -2.890625q0 -1.828125 -0.828125 -2.765625q-0.828125 -0.9375 -2.0625 -0.9375q-1.25 0 -2.078125 0.9375q-0.828125 0.9375 -0.828125 2.828125zm10.828857 4.921875l-1.546875 0l0 -13.59375l1.65625 0l0 4.84375q1.0625 -1.328125 2.703125 -1.328125q0.90625 0 1.71875 0.375q0.8125 0.359375 1.328125 1.03125q0.53125 0.65625 0.828125 1.59375q0.296875 0.9375 0.296875 2.0q0 2.53125 -1.25 3.921875q-1.25 1.375 -3.0 1.375q-1.75 0 -2.734375 -1.453125l0 1.234375zm-0.015625 -5.0q0 1.765625 0.46875 2.5625q0.796875 1.28125 2.140625 1.28125q1.09375 0 1.890625 -0.9375q0.796875 -0.953125 0.796875 -2.84375q0 -1.921875 -0.765625 -2.84375q-0.765625 -0.921875 -1.84375 -0.921875q-1.09375 0 -1.890625 0.953125q-0.796875 0.953125 -0.796875 2.75zm15.281982 3.78125q-0.9375 0.796875 -1.796875 1.125q-0.859375 0.3125 -1.84375 0.3125q-1.609375 0 -2.484375 -0.78125q-0.875 -0.796875 -0.875 -2.03125q0 -0.734375 0.328125 -1.328125q0.328125 -0.59375 0.859375 -0.953125q0.53125 -0.359375 1.203125 -0.546875q0.5 -0.140625 1.484375 -0.25q2.03125 -0.25 2.984375 -0.578125q0 -0.34375 0 -0.4375q0 -1.015625 -0.46875 -1.4375q-0.640625 -0.5625 -1.90625 -0.5625q-1.171875 0 -1.734375 0.40625q-0.5625 0.40625 -0.828125 1.46875l-1.640625 -0.234375q0.234375 -1.046875 0.734375 -1.6875q0.515625 -0.640625 1.46875 -0.984375q0.96875 -0.359375 2.25 -0.359375q1.265625 0 2.046875 0.296875q0.78125 0.296875 1.15625 0.75q0.375 0.453125 0.515625 1.140625q0.09375 0.421875 0.09375 1.53125l0 2.234375q0 2.328125 0.09375 2.953125q0.109375 0.609375 0.4375 1.171875l-1.75 0q-0.265625 -0.515625 -0.328125 -1.21875zm-0.140625 -3.71875q-0.90625 0.359375 -2.734375 0.625q-1.03125 0.140625 -1.453125 0.328125q-0.421875 0.1875 -0.65625 0.546875q-0.234375 0.359375 -0.234375 0.796875q0 0.671875 0.5 1.125q0.515625 0.4375 1.484375 0.4375q0.96875 0 1.71875 -0.421875q0.75 -0.4375 1.109375 -1.15625q0.265625 -0.578125 0.265625 -1.671875l0 -0.609375zm5.6256714 4.9375l-1.546875 0l0 -13.59375l1.65625 0l0 4.84375q1.0625 -1.328125 2.703125 -1.328125q0.90625 0 1.71875 0.375q0.8125 0.359375 1.328125 1.03125q0.53125 0.65625 0.828125 1.59375q0.296875 0.9375 0.296875 2.0q0 2.53125 -1.25 3.921875q-1.25 1.375 -3.0 1.375q-1.75 0 -2.734375 -1.453125l0 1.234375zm-0.015625 -5.0q0 1.765625 0.46875 2.5625q0.796875 1.28125 2.140625 1.28125q1.09375 0 1.890625 -0.9375q0.796875 -0.953125 0.796875 -2.84375q0 -1.921875 -0.765625 -2.84375q-0.765625 -0.921875 -1.84375 -0.921875q-1.09375 0 -1.890625 0.953125q-0.796875 0.953125 -0.796875 2.75zm8.860107 -6.6875l0 -1.90625l1.671875 0l0 1.90625l-1.671875 0zm0 11.6875l0 -9.859375l1.671875 0l0 9.859375l-1.671875 0zm4.0979614 0l0 -13.59375l1.671875 0l0 13.59375l-1.671875 0zm4.1917114 -11.6875l0 -1.90625l1.671875 0l0 1.90625l-1.671875 0zm0 11.6875l0 -9.859375l1.671875 0l0 9.859375l-1.671875 0zm7.7854004 -1.5l0.234375 1.484375q-0.703125 0.140625 -1.265625 0.140625q-0.90625 0 -1.40625 -0.28125q-0.5 -0.296875 -0.703125 -0.75q-0.203125 -0.46875 -0.203125 -1.984375l0 -5.65625l-1.234375 0l0 -1.3125l1.234375 0l0 -2.4375l1.65625 -1.0l0 3.4375l1.6875 0l0 1.3125l-1.6875 0l0 5.75q0 0.71875 0.078125 0.921875q0.09375 0.203125 0.296875 0.328125q0.203125 0.125 0.578125 0.125q0.265625 0 0.734375 -0.078125zm1.4489746 5.296875l-0.171875 -1.5625q0.546875 0.140625 0.953125 0.140625q0.546875 0 0.875 -0.1875q0.34375 -0.1875 0.5625 -0.515625q0.15625 -0.25 0.5 -1.25q0.046875 -0.140625 0.15625 -0.40625l-3.734375 -9.875l1.796875 0l2.046875 5.71875q0.40625 1.078125 0.71875 2.28125q0.28125 -1.15625 0.6875 -2.25l2.09375 -5.75l1.671875 0l-3.75 10.03125q-0.59375 1.625 -0.9375 2.234375q-0.4375 0.828125 -1.015625 1.203125q-0.578125 0.390625 -1.375 0.390625q-0.484375 0 -1.078125 -0.203125z" fill-rule="nonzero"></path><path fill="#ead1dc" d="m743.8845 110.07874l171.49603 0l0 45.259834l-171.49603 0z" fill-rule="evenodd"></path><path fill="#000000" d="m816.3357 139.62866l-5.28125 -13.59375l1.953125 0l3.53125 9.875q0.4375 1.1875 0.71875 2.21875q0.3125 -1.109375 0.734375 -2.21875l3.671875 -9.875l1.84375 0l-5.328125 13.59375l-1.84375 0zm18.256042 -4.765625l1.796875 0.453125q-0.5625 2.21875 -2.03125 3.390625q-1.46875 1.15625 -3.59375 1.15625q-2.203125 0 -3.578125 -0.890625q-1.375 -0.90625 -2.09375 -2.59375q-0.71875 -1.703125 -0.71875 -3.65625q0 -2.125 0.796875 -3.703125q0.8125 -1.578125 2.3125 -2.390625q1.5 -0.828125 3.296875 -0.828125q2.046875 0 3.4375 1.046875q1.390625 1.03125 1.9375 2.90625l-1.765625 0.421875q-0.46875 -1.484375 -1.375 -2.15625q-0.90625 -0.6875 -2.265625 -0.6875q-1.5625 0 -2.625 0.75q-1.046875 0.75 -1.484375 2.03125q-0.421875 1.265625 -0.421875 2.609375q0 1.734375 0.5 3.03125q0.515625 1.28125 1.578125 1.921875q1.078125 0.640625 2.3125 0.640625q1.515625 0 2.5625 -0.859375q1.046875 -0.875 1.421875 -2.59375zm3.8635864 4.765625l0 -13.59375l9.171875 0l0 1.59375l-7.375 0l0 4.21875l6.375 0l0 1.609375l-6.375 0l0 6.171875l-1.796875 0z" fill-rule="nonzero"></path><path fill="#000000" fill-opacity="0.0" d="m210.31496 132.70866l63.81102 0" fill-rule="evenodd"></path><path stroke="#000000" stroke-width="1.0" stroke-linejoin="round" stroke-linecap="butt" d="m210.31496 132.70866l57.81102 0" fill-rule="evenodd"></path><path fill="#000000" stroke="#000000" stroke-width="1.0" stroke-linecap="butt" d="m268.12598 134.3604l4.5381165 -1.6517334l-4.5381165 -1.6517334z" fill-rule="evenodd"></path><path fill="#000000" fill-opacity="0.0" d="m445.62204 132.70866l65.543304 0" fill-rule="evenodd"></path><path stroke="#000000" stroke-width="1.0" stroke-linejoin="round" stroke-linecap="butt" d="m445.62204 132.70866l59.543304 0" fill-rule="evenodd"></path><path fill="#000000" stroke="#000000" stroke-width="1.0" stroke-linecap="butt" d="m505.16534 134.3604l4.5381165 -1.6517334l-4.5381165 -1.6517334z" fill-rule="evenodd"></path><path fill="#000000" fill-opacity="0.0" d="m682.67584 132.70866l61.19684 0" fill-rule="evenodd"></path><path stroke="#000000" stroke-width="1.0" stroke-linejoin="round" stroke-linecap="butt" d="m682.67584 132.70866l55.19684 0" fill-rule="evenodd"></path><path fill="#000000" stroke="#000000" stroke-width="1.0" stroke-linecap="butt" d="m737.8727 134.3604l4.538147 -1.6517334l-4.538147 -1.6517334z" fill-rule="evenodd"></path><path fill="#000000" fill-opacity="0.0" d="m299.4908 168.89764l369.13388 0l0 20.881882l-369.13388 0z" fill-rule="evenodd"></path><path fill="#000000" d="m320.51855 181.49295l1.796875 0.453125q-0.5625 2.21875 -2.03125 3.390625q-1.46875 1.15625 -3.59375 1.15625q-2.203125 0 -3.578125 -0.890625q-1.375 -0.90625 -2.09375 -2.59375q-0.71875 -1.703125 -0.71875 -3.65625q0 -2.125 0.796875 -3.703125q0.8125 -1.578125 2.3125 -2.390625q1.5 -0.828125 3.296875 -0.828125q2.046875 0 3.4375 1.046875q1.390625 1.03125 1.9375 2.90625l-1.765625 0.421875q-0.46875 -1.484375 -1.375 -2.15625q-0.90625 -0.6875 -2.265625 -0.6875q-1.5625 0 -2.625 0.75q-1.046875 0.75 -1.484375 2.03125q-0.421875 1.265625 -0.421875 2.609375q0 1.734375 0.5 3.03125q0.515625 1.28125 1.578125 1.921875q1.078125 0.640625 2.3125 0.640625q1.515625 0 2.5625 -0.859375q1.046875 -0.875 1.421875 -2.59375zm3.519806 4.765625l0 -13.59375l1.671875 0l0 13.59375l-1.671875 0zm10.613586 -1.21875q-0.9375 0.796875 -1.796875 1.125q-0.859375 0.3125 -1.84375 0.3125q-1.609375 0 -2.484375 -0.78125q-0.875 -0.796875 -0.875 -2.03125q0 -0.734375 0.328125 -1.328125q0.328125 -0.59375 0.859375 -0.953125q0.53125 -0.359375 1.203125 -0.546875q0.5 -0.140625 1.484375 -0.25q2.03125 -0.25 2.984375 -0.578125q0 -0.34375 0 -0.4375q0 -1.015625 -0.46875 -1.4375q-0.640625 -0.5625 -1.90625 -0.5625q-1.171875 0 -1.734375 0.40625q-0.5625 0.40625 -0.828125 1.46875l-1.640625 -0.234375q0.234375 -1.046875 0.734375 -1.6875q0.515625 -0.640625 1.46875 -0.984375q0.96875 -0.359375 2.25 -0.359375q1.265625 0 2.046875 0.296875q0.78125 0.296875 1.15625 0.75q0.375 0.453125 0.515625 1.140625q0.09375 0.421875 0.09375 1.53125l0 2.234375q0 2.328125 0.09375 2.953125q0.109375 0.609375 0.4375 1.171875l-1.75 0q-0.265625 -0.515625 -0.328125 -1.21875zm-0.140625 -3.71875q-0.90625 0.359375 -2.734375 0.625q-1.03125 0.140625 -1.453125 0.328125q-0.421875 0.1875 -0.65625 0.546875q-0.234375 0.359375 -0.234375 0.796875q0 0.671875 0.5 1.125q0.515625 0.4375 1.484375 0.4375q0.96875 0 1.71875 -0.421875q0.75 -0.4375 1.109375 -1.15625q0.265625 -0.578125 0.265625 -1.671875l0 -0.609375zm3.406952 2.0l1.65625 -0.265625q0.140625 1.0 0.765625 1.53125q0.640625 0.515625 1.78125 0.515625q1.15625 0 1.703125 -0.46875q0.5625 -0.46875 0.5625 -1.09375q0 -0.5625 -0.484375 -0.890625q-0.34375 -0.21875 -1.703125 -0.5625q-1.84375 -0.46875 -2.5625 -0.796875q-0.703125 -0.34375 -1.078125 -0.9375q-0.359375 -0.609375 -0.359375 -1.328125q0 -0.65625 0.296875 -1.21875q0.3125 -0.5625 0.828125 -0.9375q0.390625 -0.28125 1.0625 -0.484375q0.671875 -0.203125 1.4375 -0.203125q1.171875 0 2.046875 0.34375q0.875 0.328125 1.28125 0.90625q0.421875 0.5625 0.578125 1.515625l-1.625 0.21875q-0.109375 -0.75 -0.65625 -1.171875q-0.53125 -0.4375 -1.5 -0.4375q-1.15625 0 -1.640625 0.390625q-0.484375 0.375 -0.484375 0.875q0 0.328125 0.203125 0.59375q0.203125 0.265625 0.640625 0.4375q0.25 0.09375 1.46875 0.4375q1.765625 0.46875 2.46875 0.765625q0.703125 0.296875 1.09375 0.875q0.40625 0.578125 0.40625 1.4375q0 0.828125 -0.484375 1.578125q-0.484375 0.734375 -1.40625 1.140625q-0.921875 0.390625 -2.078125 0.390625q-1.921875 0 -2.9375 -0.796875q-1.0 -0.796875 -1.28125 -2.359375zm9.328125 0l1.65625 -0.265625q0.140625 1.0 0.765625 1.53125q0.640625 0.515625 1.78125 0.515625q1.15625 0 1.703125 -0.46875q0.5625 -0.46875 0.5625 -1.09375q0 -0.5625 -0.484375 -0.890625q-0.34375 -0.21875 -1.703125 -0.5625q-1.84375 -0.46875 -2.5625 -0.796875q-0.703125 -0.34375 -1.078125 -0.9375q-0.359375 -0.609375 -0.359375 -1.328125q0 -0.65625 0.296875 -1.21875q0.3125 -0.5625 0.828125 -0.9375q0.390625 -0.28125 1.0625 -0.484375q0.671875 -0.203125 1.4375 -0.203125q1.171875 0 2.046875 0.34375q0.875 0.328125 1.28125 0.90625q0.421875 0.5625 0.578125 1.515625l-1.625 0.21875q-0.109375 -0.75 -0.65625 -1.171875q-0.53125 -0.4375 -1.5 -0.4375q-1.15625 0 -1.640625 0.390625q-0.484375 0.375 -0.484375 0.875q0 0.328125 0.203125 0.59375q0.203125 0.265625 0.640625 0.4375q0.25 0.09375 1.46875 0.4375q1.765625 0.46875 2.46875 0.765625q0.703125 0.296875 1.09375 0.875q0.40625 0.578125 0.40625 1.4375q0 0.828125 -0.484375 1.578125q-0.484375 0.734375 -1.40625 1.140625q-0.921875 0.390625 -2.078125 0.390625q-1.921875 0 -2.9375 -0.796875q-1.0 -0.796875 -1.28125 -2.359375zm10.015625 -8.75l0 -1.90625l1.671875 0l0 1.90625l-1.671875 0zm0 11.6875l0 -9.859375l1.671875 0l0 9.859375l-1.671875 0zm4.5354614 0l0 -8.546875l-1.484375 0l0 -1.3125l1.484375 0l0 -1.046875q0 -0.984375 0.171875 -1.46875q0.234375 -0.65625 0.84375 -1.046875q0.609375 -0.40625 1.703125 -0.40625q0.703125 0 1.5625 0.15625l-0.25 1.46875q-0.515625 -0.09375 -0.984375 -0.09375q-0.765625 0 -1.078125 0.328125q-0.3125 0.3125 -0.3125 1.203125l0 0.90625l1.921875 0l0 1.3125l-1.921875 0l0 8.546875l-1.65625 0zm4.7926636 -11.6875l0 -1.90625l1.671875 0l0 1.90625l-1.671875 0zm0 11.6875l0 -9.859375l1.671875 0l0 9.859375l-1.671875 0zm10.566711 -3.609375l1.640625 0.21875q-0.265625 1.6875 -1.375 2.65625q-1.109375 0.953125 -2.734375 0.953125q-2.015625 0 -3.25 -1.3125q-1.21875 -1.328125 -1.21875 -3.796875q0 -1.59375 0.515625 -2.78125q0.53125 -1.203125 1.609375 -1.796875q1.09375 -0.609375 2.359375 -0.609375q1.609375 0 2.625 0.8125q1.015625 0.8125 1.3125 2.3125l-1.625 0.25q-0.234375 -1.0 -0.828125 -1.5q-0.59375 -0.5 -1.421875 -0.5q-1.265625 0 -2.0625 0.90625q-0.78125 0.90625 -0.78125 2.859375q0 1.984375 0.765625 2.890625q0.765625 0.890625 1.984375 0.890625q0.984375 0 1.640625 -0.59375q0.65625 -0.609375 0.84375 -1.859375zm9.328125 2.390625q-0.9375 0.796875 -1.796875 1.125q-0.859375 0.3125 -1.84375 0.3125q-1.609375 0 -2.484375 -0.78125q-0.875 -0.796875 -0.875 -2.03125q0 -0.734375 0.328125 -1.328125q0.328125 -0.59375 0.859375 -0.953125q0.53125 -0.359375 1.203125 -0.546875q0.5 -0.140625 1.484375 -0.25q2.03125 -0.25 2.984375 -0.578125q0 -0.34375 0 -0.4375q0 -1.015625 -0.46875 -1.4375q-0.640625 -0.5625 -1.90625 -0.5625q-1.171875 0 -1.734375 0.40625q-0.5625 0.40625 -0.828125 1.46875l-1.640625 -0.234375q0.234375 -1.046875 0.734375 -1.6875q0.515625 -0.640625 1.46875 -0.984375q0.96875 -0.359375 2.25 -0.359375q1.265625 0 2.046875 0.296875q0.78125 0.296875 1.15625 0.75q0.375 0.453125 0.515625 1.140625q0.09375 0.421875 0.09375 1.53125l0 2.234375q0 2.328125 0.09375 2.953125q0.109375 0.609375 0.4375 1.171875l-1.75 0q-0.265625 -0.515625 -0.328125 -1.21875zm-0.140625 -3.71875q-0.90625 0.359375 -2.734375 0.625q-1.03125 0.140625 -1.453125 0.328125q-0.421875 0.1875 -0.65625 0.546875q-0.234375 0.359375 -0.234375 0.796875q0 0.671875 0.5 1.125q0.515625 0.4375 1.484375 0.4375q0.96875 0 1.71875 -0.421875q0.75 -0.4375 1.109375 -1.15625q0.265625 -0.578125 0.265625 -1.671875l0 -0.609375zm7.735077 3.4375l0.234375 1.484375q-0.703125 0.140625 -1.265625 0.140625q-0.90625 0 -1.40625 -0.28125q-0.5 -0.296875 -0.703125 -0.75q-0.203125 -0.46875 -0.203125 -1.984375l0 -5.65625l-1.234375 0l0 -1.3125l1.234375 0l0 -2.4375l1.65625 -1.0l0 3.4375l1.6875 0l0 1.3125l-1.6875 0l0 5.75q0 0.71875 0.078125 0.921875q0.09375 0.203125 0.296875 0.328125q0.203125 0.125 0.578125 0.125q0.265625 0 0.734375 -0.078125zm1.5426941 -10.1875l0 -1.90625l1.671875 0l0 1.90625l-1.671875 0zm0 11.6875l0 -9.859375l1.671875 0l0 9.859375l-1.671875 0zm3.504181 -4.921875q0 -2.734375 1.53125 -4.0625q1.265625 -1.09375 3.09375 -1.09375q2.03125 0 3.3125 1.34375q1.296875 1.328125 1.296875 3.671875q0 1.90625 -0.578125 3.0q-0.5625 1.078125 -1.65625 1.6875q-1.078125 0.59375 -2.375 0.59375q-2.0625 0 -3.34375 -1.328125q-1.28125 -1.328125 -1.28125 -3.8125zm1.71875 0q0 1.890625 0.828125 2.828125q0.828125 0.9375 2.078125 0.9375q1.25 0 2.0625 -0.9375q0.828125 -0.953125 0.828125 -2.890625q0 -1.828125 -0.828125 -2.765625q-0.828125 -0.9375 -2.0625 -0.9375q-1.25 0 -2.078125 0.9375q-0.828125 0.9375 -0.828125 2.828125zm9.281982 4.921875l0 -9.859375l1.5 0l0 1.40625q1.09375 -1.625 3.140625 -1.625q0.890625 0 1.640625 0.328125q0.75 0.3125 1.109375 0.84375q0.375 0.515625 0.53125 1.21875q0.09375 0.46875 0.09375 1.625l0 6.0625l-1.671875 0l0 -6.0q0 -1.015625 -0.203125 -1.515625q-0.1875 -0.515625 -0.6875 -0.8125q-0.5 -0.296875 -1.171875 -0.296875q-1.0625 0 -1.84375 0.671875q-0.765625 0.671875 -0.765625 2.578125l0 5.375l-1.671875 0zm15.559021 3.78125l0 -13.640625l1.53125 0l0 1.28125q0.53125 -0.75 1.203125 -1.125q0.6875 -0.375 1.640625 -0.375q1.265625 0 2.234375 0.65625q0.96875 0.640625 1.453125 1.828125q0.5 1.1875 0.5 2.59375q0 1.515625 -0.546875 2.734375q-0.546875 1.203125 -1.578125 1.84375q-1.03125 0.640625 -2.171875 0.640625q-0.84375 0 -1.515625 -0.34375q-0.65625 -0.359375 -1.078125 -0.890625l0 4.796875l-1.671875 0zm1.515625 -8.65625q0 1.90625 0.765625 2.8125q0.78125 0.90625 1.875 0.90625q1.109375 0 1.890625 -0.9375q0.796875 -0.9375 0.796875 -2.921875q0 -1.875 -0.78125 -2.8125q-0.765625 -0.9375 -1.84375 -0.9375q-1.0625 0 -1.890625 1.0q-0.8125 1.0 -0.8125 2.890625zm8.844452 4.875l0 -9.859375l1.5 0l0 1.5q0.578125 -1.046875 1.0625 -1.375q0.484375 -0.34375 1.078125 -0.34375q0.84375 0 1.71875 0.546875l-0.578125 1.546875q-0.609375 -0.359375 -1.234375 -0.359375q-0.546875 0 -0.984375 0.328125q-0.421875 0.328125 -0.609375 0.90625q-0.28125 0.890625 -0.28125 1.953125l0 5.15625l-1.671875 0zm5.603302 -4.921875q0 -2.734375 1.53125 -4.0625q1.265625 -1.09375 3.09375 -1.09375q2.03125 0 3.3125 1.34375q1.296875 1.328125 1.296875 3.671875q0 1.90625 -0.578125 3.0q-0.5625 1.078125 -1.65625 1.6875q-1.078125 0.59375 -2.375 0.59375q-2.0625 0 -3.34375 -1.328125q-1.28125 -1.328125 -1.28125 -3.8125zm1.71875 0q0 1.890625 0.828125 2.828125q0.828125 0.9375 2.078125 0.9375q1.25 0 2.0625 -0.9375q0.828125 -0.953125 0.828125 -2.890625q0 -1.828125 -0.828125 -2.765625q-0.828125 -0.9375 -2.0625 -0.9375q-1.25 0 -2.078125 0.9375q-0.828125 0.9375 -0.828125 2.828125zm10.828857 4.921875l-1.546875 0l0 -13.59375l1.65625 0l0 4.84375q1.0625 -1.328125 2.703125 -1.328125q0.90625 0 1.71875 0.375q0.8125 0.359375 1.328125 1.03125q0.53125 0.65625 0.828125 1.59375q0.296875 0.9375 0.296875 2.0q0 2.53125 -1.25 3.921875q-1.25 1.375 -3.0 1.375q-1.75 0 -2.734375 -1.453125l0 1.234375zm-0.015625 -5.0q0 1.765625 0.46875 2.5625q0.796875 1.28125 2.140625 1.28125q1.09375 0 1.890625 -0.9375q0.796875 -0.953125 0.796875 -2.84375q0 -1.921875 -0.765625 -2.84375q-0.765625 -0.921875 -1.84375 -0.921875q-1.09375 0 -1.890625 0.953125q-0.796875 0.953125 -0.796875 2.75zm8.813202 5.0l0 -13.59375l1.671875 0l0 13.59375l-1.671875 0zm10.926086 -3.171875l1.71875 0.21875q-0.40625 1.5 -1.515625 2.34375q-1.09375 0.828125 -2.8125 0.828125q-2.15625 0 -3.421875 -1.328125q-1.265625 -1.328125 -1.265625 -3.734375q0 -2.484375 1.265625 -3.859375q1.28125 -1.375 3.328125 -1.375q1.984375 0 3.234375 1.34375q1.25 1.34375 1.25 3.796875q0 0.140625 -0.015625 0.4375l-7.34375 0q0.09375 1.625 0.921875 2.484375q0.828125 0.859375 2.0625 0.859375q0.90625 0 1.546875 -0.46875q0.65625 -0.484375 1.046875 -1.546875zm-5.484375 -2.703125l5.5 0q-0.109375 -1.234375 -0.625 -1.859375q-0.796875 -0.96875 -2.078125 -0.96875q-1.140625 0 -1.9375 0.78125q-0.78125 0.765625 -0.859375 2.046875zm9.110077 5.875l0 -9.859375l1.5 0l0 1.390625q0.453125 -0.71875 1.21875 -1.15625q0.78125 -0.453125 1.765625 -0.453125q1.09375 0 1.796875 0.453125q0.703125 0.453125 0.984375 1.28125q1.171875 -1.734375 3.046875 -1.734375q1.46875 0 2.25 0.8125q0.796875 0.8125 0.796875 2.5l0 6.765625l-1.671875 0l0 -6.203125q0 -1.0 -0.15625 -1.4375q-0.15625 -0.453125 -0.59375 -0.71875q-0.421875 -0.265625 -1.0 -0.265625q-1.03125 0 -1.71875 0.6875q-0.6875 0.6875 -0.6875 2.21875l0 5.71875l-1.671875 0l0 -6.40625q0 -1.109375 -0.40625 -1.65625q-0.40625 -0.5625 -1.34375 -0.5625q-0.703125 0 -1.3125 0.375q-0.59375 0.359375 -0.859375 1.078125q-0.265625 0.71875 -0.265625 2.0625l0 5.109375l-1.671875 0zm20.083496 -4.078125l0 -1.6875l5.125 0l0 1.6875l-5.125 0zm12.552216 4.078125l0 -13.59375l1.8125 0l0 13.59375l-1.8125 0zm14.589539 -4.765625l1.796875 0.453125q-0.5625 2.21875 -2.03125 3.390625q-1.46875 1.15625 -3.59375 1.15625q-2.203125 0 -3.578125 -0.890625q-1.375 -0.90625 -2.09375 -2.59375q-0.71875 -1.703125 -0.71875 -3.65625q0 -2.125 0.796875 -3.703125q0.8125 -1.578125 2.3125 -2.390625q1.5 -0.828125 3.296875 -0.828125q2.046875 0 3.4375 1.046875q1.390625 1.03125 1.9375 2.90625l-1.765625 0.421875q-0.46875 -1.484375 -1.375 -2.15625q-0.90625 -0.6875 -2.265625 -0.6875q-1.5625 0 -2.625 0.75q-1.046875 0.75 -1.484375 2.03125q-0.421875 1.265625 -0.421875 2.609375q0 1.734375 0.5 3.03125q0.515625 1.28125 1.578125 1.921875q1.078125 0.640625 2.3125 0.640625q1.515625 0 2.5625 -0.859375q1.046875 -0.875 1.421875 -2.59375zm3.7073364 4.765625l0 -13.59375l2.71875 0l3.21875 9.625q0.4375 1.34375 0.640625 2.015625q0.234375 -0.75 0.734375 -2.1875l3.25 -9.453125l2.421875 0l0 13.59375l-1.734375 0l0 -11.390625l-3.953125 11.390625l-1.625 0l-3.9375 -11.578125l0 11.578125l-1.734375 0zm15.5252075 0l0 -13.59375l1.796875 0l0 11.984375l6.703125 0l0 1.609375l-8.5 0zm25.34021 -4.765625l1.796875 0.453125q-0.5625 2.21875 -2.03125 3.390625q-1.46875 1.15625 -3.59375 1.15625q-2.203125 0 -3.578125 -0.890625q-1.375 -0.90625 -2.09375 -2.59375q-0.71875 -1.703125 -0.71875 -3.65625q0 -2.125 0.796875 -3.703125q0.8125 -1.578125 2.3125 -2.390625q1.5 -0.828125 3.296875 -0.828125q2.046875 0 3.4375 1.046875q1.390625 1.03125 1.9375 2.90625l-1.765625 0.421875q-0.46875 -1.484375 -1.375 -2.15625q-0.90625 -0.6875 -2.265625 -0.6875q-1.5625 0 -2.625 0.75q-1.046875 0.75 -1.484375 2.03125q-0.421875 1.265625 -0.421875 2.609375q0 1.734375 0.5 3.03125q0.515625 1.28125 1.578125 1.921875q1.078125 0.640625 2.3125 0.640625q1.515625 0 2.5625 -0.859375q1.046875 -0.875 1.421875 -2.59375zm2.9260864 -0.15625q0 -2.734375 1.53125 -4.0625q1.265625 -1.09375 3.09375 -1.09375q2.03125 0 3.3125 1.34375q1.296875 1.328125 1.296875 3.671875q0 1.90625 -0.578125 3.0q-0.5625 1.078125 -1.65625 1.6875q-1.078125 0.59375 -2.375 0.59375q-2.0625 0 -3.34375 -1.328125q-1.28125 -1.328125 -1.28125 -3.8125zm1.71875 0q0 1.890625 0.828125 2.828125q0.828125 0.9375 2.078125 0.9375q1.25 0 2.0625 -0.9375q0.828125 -0.953125 0.828125 -2.890625q0 -1.828125 -0.828125 -2.765625q-0.828125 -0.9375 -2.0625 -0.9375q-1.25 0 -2.078125 0.9375q-0.828125 0.9375 -0.828125 2.828125zm9.281982 4.921875l0 -9.859375l1.5 0l0 1.40625q1.09375 -1.625 3.140625 -1.625q0.890625 0 1.640625 0.328125q0.75 0.3125 1.109375 0.84375q0.375 0.515625 0.53125 1.21875q0.09375 0.46875 0.09375 1.625l0 6.0625l-1.671875 0l0 -6.0q0 -1.015625 -0.203125 -1.515625q-0.1875 -0.515625 -0.6875 -0.8125q-0.5 -0.296875 -1.171875 -0.296875q-1.0625 0 -1.84375 0.671875q-0.765625 0.671875 -0.765625 2.578125l0 5.375l-1.671875 0zm14.031982 -1.5l0.234375 1.484375q-0.703125 0.140625 -1.265625 0.140625q-0.90625 0 -1.40625 -0.28125q-0.5 -0.296875 -0.703125 -0.75q-0.203125 -0.46875 -0.203125 -1.984375l0 -5.65625l-1.234375 0l0 -1.3125l1.234375 0l0 -2.4375l1.65625 -1.0l0 3.4375l1.6875 0l0 1.3125l-1.6875 0l0 5.75q0 0.71875 0.078125 0.921875q0.09375 0.203125 0.296875 0.328125q0.203125 0.125 0.578125 0.125q0.265625 0 0.734375 -0.078125zm1.5114136 1.5l0 -9.859375l1.5 0l0 1.5q0.578125 -1.046875 1.0625 -1.375q0.484375 -0.34375 1.078125 -0.34375q0.84375 0 1.71875 0.546875l-0.578125 1.546875q-0.609375 -0.359375 -1.234375 -0.359375q-0.546875 0 -0.984375 0.328125q-0.421875 0.328125 -0.609375 0.90625q-0.28125 0.890625 -0.28125 1.953125l0 5.15625l-1.671875 0zm6.2438965 -11.6875l0 -1.90625l1.671875 0l0 1.90625l-1.671875 0zm0 11.6875l0 -9.859375l1.671875 0l0 9.859375l-1.671875 0zm5.6760864 0l-1.546875 0l0 -13.59375l1.65625 0l0 4.84375q1.0625 -1.328125 2.703125 -1.328125q0.90625 0 1.71875 0.375q0.8125 0.359375 1.328125 1.03125q0.53125 0.65625 0.828125 1.59375q0.296875 0.9375 0.296875 2.0q0 2.53125 -1.25 3.921875q-1.25 1.375 -3.0 1.375q-1.75 0 -2.734375 -1.453125l0 1.234375zm-0.015625 -5.0q0 1.765625 0.46875 2.5625q0.796875 1.28125 2.140625 1.28125q1.09375 0 1.890625 -0.9375q0.796875 -0.953125 0.796875 -2.84375q0 -1.921875 -0.765625 -2.84375q-0.765625 -0.921875 -1.84375 -0.921875q-1.09375 0 -1.890625 0.953125q-0.796875 0.953125 -0.796875 2.75zm15.297607 5.0l0 -1.453125q-1.140625 1.671875 -3.125 1.671875q-0.859375 0 -1.625 -0.328125q-0.75 -0.34375 -1.125 -0.84375q-0.359375 -0.5 -0.515625 -1.234375q-0.09375 -0.5 -0.09375 -1.5625l0 -6.109375l1.671875 0l0 5.46875q0 1.3125 0.09375 1.765625q0.15625 0.65625 0.671875 1.03125q0.515625 0.375 1.265625 0.375q0.75 0 1.40625 -0.375q0.65625 -0.390625 0.921875 -1.046875q0.28125 -0.671875 0.28125 -1.9375l0 -5.28125l1.671875 0l0 9.859375l-1.5 0zm7.5788574 -1.5l0.234375 1.484375q-0.703125 0.140625 -1.265625 0.140625q-0.90625 0 -1.40625 -0.28125q-0.5 -0.296875 -0.703125 -0.75q-0.203125 -0.46875 -0.203125 -1.984375l0 -5.65625l-1.234375 0l0 -1.3125l1.234375 0l0 -2.4375l1.65625 -1.0l0 3.4375l1.6875 0l0 1.3125l-1.6875 0l0 5.75q0 0.71875 0.078125 0.921875q0.09375 0.203125 0.296875 0.328125q0.203125 0.125 0.578125 0.125q0.265625 0 0.734375 -0.078125zm1.5426636 -10.1875l0 -1.90625l1.671875 0l0 1.90625l-1.671875 0zm0 11.6875l0 -9.859375l1.671875 0l0 9.859375l-1.671875 0zm3.5042114 -4.921875q0 -2.734375 1.53125 -4.0625q1.265625 -1.09375 3.09375 -1.09375q2.03125 0 3.3125 1.34375q1.296875 1.328125 1.296875 3.671875q0 1.90625 -0.578125 3.0q-0.5625 1.078125 -1.65625 1.6875q-1.078125 0.59375 -2.375 0.59375q-2.0625 0 -3.34375 -1.328125q-1.28125 -1.328125 -1.28125 -3.8125zm1.71875 0q0 1.890625 0.828125 2.828125q0.828125 0.9375 2.078125 0.9375q1.25 0 2.0625 -0.9375q0.828125 -0.953125 0.828125 -2.890625q0 -1.828125 -0.828125 -2.765625q-0.828125 -0.9375 -2.0625 -0.9375q-1.25 0 -2.078125 0.9375q-0.828125 0.9375 -0.828125 2.828125zm9.281982 4.921875l0 -9.859375l1.5 0l0 1.40625q1.09375 -1.625 3.140625 -1.625q0.890625 0 1.640625 0.328125q0.75 0.3125 1.109375 0.84375q0.375 0.515625 0.53125 1.21875q0.09375 0.46875 0.09375 1.625l0 6.0625l-1.671875 0l0 -6.0q0 -1.015625 -0.203125 -1.515625q-0.1875 -0.515625 -0.6875 -0.8125q-0.5 -0.296875 -1.171875 -0.296875q-1.0625 0 -1.84375 0.671875q-0.765625 0.671875 -0.765625 2.578125l0 5.375l-1.671875 0z" fill-rule="nonzero"></path></g></svg>

